<svg width="800" height="400" viewBox="0 0 800 400" xmlns="http://www.w3.org/2000/svg">
  <!-- Background gradient -->
  <defs>
    <linearGradient id="bgGradient" x1="0%" y1="0%" x2="100%" y2="100%">
      <stop offset="0%" stop-color="#1a1a2e" />
      <stop offset="50%" stop-color="#16213e" />
      <stop offset="100%" stop-color="#0f3460" />
    </linearGradient>
    <linearGradient id="lineGradient" x1="0%" y1="0%" x2="100%" y2="0%">
      <stop offset="0%" stop-color="transparent" />
      <stop offset="50%" stop-color="#e94560" />
      <stop offset="100%" stop-color="transparent" />
    </linearGradient>
    <linearGradient id="featherGradient" x1="0%" y1="0%" x2="100%" y2="100%">
      <stop offset="0%" stop-color="#ffffff" />
      <stop offset="100%" stop-color="#e94560" />
    </linearGradient>
  </defs>

  <!-- Background -->
  <rect width="800" height="400" fill="url(#bgGradient)" />

  <!-- Decorative lines -->
  <line x1="0" y1="80" x2="800" y2="80" stroke="url(#lineGradient)" stroke-width="1" opacity="0.15" />
  <line x1="0" y1="110" x2="800" y2="110" stroke="url(#lineGradient)" stroke-width="1" opacity="0.12" />
  <line x1="0" y1="140" x2="800" y2="140" stroke="url(#lineGradient)" stroke-width="1" opacity="0.1" />
  <line x1="0" y1="170" x2="800" y2="170" stroke="url(#lineGradient)" stroke-width="1" opacity="0.08" />
  <line x1="0" y1="200" x2="800" y2="200" stroke="url(#lineGradient)" stroke-width="1" opacity="0.06" />
  <line x1="0" y1="230" x2="800" y2="230" stroke="url(#lineGradient)" stroke-width="1" opacity="0.08" />
  <line x1="0" y1="260" x2="800" y2="260" stroke="url(#lineGradient)" stroke-width="1" opacity="0.1" />
  <line x1="0" y1="290" x2="800" y2="290" stroke="url(#lineGradient)" stroke-width="1" opacity="0.12" />
  <line x1="0" y1="320" x2="800" y2="320" stroke="url(#lineGradient)" stroke-width="1" opacity="0.15" />

  <!-- Feather icon (Lucide React Feather) -->
  <g transform="translate(400, 120)">
    <path d="m20.24 12.24-1.54-1.54L16 13.41l-1.29-1.29c-.94-.94-2.46-.94-3.4 0l-1.06 1.06c-.94.94-.94 2.46 0 3.4L11.59 18 9.88 19.71c-.94.94-.94 2.46 0 3.4.47.47 1.08.71 1.71.71s1.24-.24 1.71-.71L15 21.41l1.29 1.29c.94.94 2.46.94 3.4 0l1.06-1.06c.94-.94.94-2.46 0-3.4L18.41 16l2.83-2.83c.78-.78.78-2.05 0-2.83-.78-.78-2.05-.78-2.83 0L16 12.76l-1.54-1.54c-.78-.78-2.05-.78-2.83 0s-.78 2.05 0 2.83L13.17 16 16 18.83l2.83-2.83L20.24 17.41c.78.78 2.05.78 2.83 0s.78-2.05 0-2.83L20.24 12.24z" 
          fill="url(#featherGradient)" 
          stroke="none" 
          transform="scale(2.5) translate(-12, -12)" 
          opacity="0.9" />
    <path d="M20.24 12.24a3 3 0 0 0-1.41-2.83L16 12.41l-1.29-1.29a3 3 0 0 0-4.24 0L9.41 12.17a3 3 0 0 0 0 4.24L11.59 18l-2.83 2.83a3 3 0 0 0 0 4.24 3 3 0 0 0 4.24 0L15 22.24l2.83 2.83a3 3 0 0 0 4.24 0 3 3 0 0 0 0-4.24L19.24 18l2.83-2.83a3 3 0 0 0 0-4.24z" 
          fill="none" 
          stroke="url(#featherGradient)" 
          stroke-width="1.5" 
          transform="scale(2.5) translate(-12, -12)" 
          opacity="0.7" />
  </g>

  <!-- Site name -->
  <text x="400" y="220" font-family="serif" font-size="42" font-weight="bold" text-anchor="middle" fill="#ffffff" letter-spacing="2">
    unmatched<tspan fill="#e94560">lines</tspan>
  </text>

  <!-- Domain -->
  <text x="400" y="250" font-family="serif" font-size="16" text-anchor="middle" fill="#ffffff" opacity="0.6">
    unmatchedlines.com
  </text>

  <!-- Tagline -->
  <text x="400" y="280" font-family="serif" font-size="18" font-style="italic" text-anchor="middle" fill="#ffffff" opacity="0.8">
    Where words transcend boundaries
  </text>

  <!-- Decorative quote marks -->
  <text x="120" y="120" font-family="serif" font-size="80" text-anchor="middle" fill="#ffffff" opacity="0.08">
    "
  </text>
  <text x="680" y="320" font-family="serif" font-size="80" text-anchor="middle" fill="#ffffff" opacity="0.08">
    "
  </text>

  <!-- Decorative flourishes -->
  <path d="M300 300 Q320 290 340 300 Q320 310 300 300" fill="none" stroke="#e94560" stroke-width="1" opacity="0.3" />
  <path d="M460 300 Q480 290 500 300 Q480 310 460 300" fill="none" stroke="#e94560" stroke-width="1" opacity="0.3" />
</svg>